<mxfile host="app.diagrams.net" modified="2022-02-14T18:00:34.438Z" agent="5.0 (Windows NT 10.0; Win64; x64) AppleWebKit/537.36 (KHTML, like Gecko) Chrome/97.0.4692.71 Safari/537.36" etag="-fv68Ubdm503wt1a95ZO" version="16.4.6" type="github">
  <diagram id="prtHgNgQTEPvFCAcTncT" name="Page-1">
    <mxGraphModel dx="1185" dy="1859" grid="1" gridSize="10" guides="1" tooltips="1" connect="1" arrows="1" fold="1" page="1" pageScale="1" pageWidth="827" pageHeight="1169" math="0" shadow="0">
      <root>
        <mxCell id="0" />
        <mxCell id="1" parent="0" />
        <mxCell id="dNxyNK7c78bLwvsdeMH5-23" value="Администратор&lt;br&gt;_________________&lt;br&gt;1. Встречает гостей.&lt;br&gt;2. Направляет к свободному столику либо оповещает об отсутствии свободных мест.&lt;br&gt;3. Принимает верхнюю одежду в гардероб.&lt;br&gt;4. Закрывает кафе." style="ellipse;whiteSpace=wrap;html=1;" parent="1" vertex="1">
          <mxGeometry x="414" y="110" width="220" height="220" as="geometry" />
        </mxCell>
        <mxCell id="ESlrRKZIVGuywE4y-Gir-1" value="Уборщица&lt;br&gt;_________________&lt;br&gt;1. Уборка в помещениях" style="ellipse;whiteSpace=wrap;html=1;" vertex="1" parent="1">
          <mxGeometry x="444" y="-100" width="160" height="160" as="geometry" />
        </mxCell>
        <mxCell id="ESlrRKZIVGuywE4y-Gir-2" value="Повар&lt;br&gt;_________________&lt;br&gt;1. Приготовление блюд" style="ellipse;whiteSpace=wrap;html=1;" vertex="1" parent="1">
          <mxGeometry x="160" y="330" width="160" height="160" as="geometry" />
        </mxCell>
        <mxCell id="ESlrRKZIVGuywE4y-Gir-3" value="Официант&lt;br&gt;_________________&lt;br&gt;1. Оформление заказа.&lt;br&gt;2. Передача заказа повару.&lt;br&gt;3. Вынос блюд.&lt;br&gt;4. Прием оплаты." style="ellipse;whiteSpace=wrap;html=1;" vertex="1" parent="1">
          <mxGeometry x="160" y="140" width="160" height="160" as="geometry" />
        </mxCell>
        <mxCell id="ESlrRKZIVGuywE4y-Gir-4" value="" style="endArrow=classic;html=1;rounded=0;entryX=0;entryY=0.5;entryDx=0;entryDy=0;" edge="1" parent="1" target="dNxyNK7c78bLwvsdeMH5-23">
          <mxGeometry width="50" height="50" relative="1" as="geometry">
            <mxPoint x="320" y="220" as="sourcePoint" />
            <mxPoint x="370" y="170" as="targetPoint" />
          </mxGeometry>
        </mxCell>
        <mxCell id="ESlrRKZIVGuywE4y-Gir-5" value="" style="endArrow=classic;html=1;rounded=0;entryX=0.5;entryY=1;entryDx=0;entryDy=0;" edge="1" parent="1" target="ESlrRKZIVGuywE4y-Gir-3">
          <mxGeometry width="50" height="50" relative="1" as="geometry">
            <mxPoint x="240" y="330" as="sourcePoint" />
            <mxPoint x="334.0000000000002" y="360" as="targetPoint" />
          </mxGeometry>
        </mxCell>
        <mxCell id="ESlrRKZIVGuywE4y-Gir-6" value="" style="endArrow=classic;html=1;rounded=0;" edge="1" parent="1">
          <mxGeometry width="50" height="50" relative="1" as="geometry">
            <mxPoint x="530" y="410" as="sourcePoint" />
            <mxPoint x="530" y="330" as="targetPoint" />
          </mxGeometry>
        </mxCell>
        <mxCell id="ESlrRKZIVGuywE4y-Gir-7" value="" style="endArrow=none;html=1;rounded=0;" edge="1" parent="1">
          <mxGeometry width="50" height="50" relative="1" as="geometry">
            <mxPoint x="320" y="410" as="sourcePoint" />
            <mxPoint x="530" y="410" as="targetPoint" />
          </mxGeometry>
        </mxCell>
        <mxCell id="ESlrRKZIVGuywE4y-Gir-8" value="" style="endArrow=classic;html=1;rounded=0;entryX=0.5;entryY=0;entryDx=0;entryDy=0;" edge="1" parent="1" target="dNxyNK7c78bLwvsdeMH5-23">
          <mxGeometry width="50" height="50" relative="1" as="geometry">
            <mxPoint x="524" y="60" as="sourcePoint" />
            <mxPoint x="523.76" y="-20" as="targetPoint" />
          </mxGeometry>
        </mxCell>
      </root>
    </mxGraphModel>
  </diagram>
</mxfile>
